<svg id="Layer_2" data-name="Layer 2" xmlns="http://www.w3.org/2000/svg" viewBox="0 0 1215.63 653"><title>3</title><path d="M559.91,528.33s50-102,156-102,155,92.5,155,92.5-68.5,40.5-169.5,40.5S559.91,528.33,559.91,528.33Z" transform="translate(-123.91 -426.33)"/><polygon points="424.5 121.5 405 162 449 133 424.5 121.5"/><polygon points="757.14 112.75 774.67 146.83 738.16 121.66 757.14 112.75"/><path d="M536.24,601.33s20.67,12.67,39,18.34l-2.33-45Z" transform="translate(-123.91 -426.33)"/><path d="M588.24,561l3.34,58.67s27.16-19,38.44-45.93C630,573.74,616.91,572.17,588.24,561Z" transform="translate(-123.91 -426.33)"/><path d="M602.91,628.67s20.33-19.67,33.33-38.34L654.58,638S620.24,639,602.91,628.67Z" transform="translate(-123.91 -426.33)"/><polygon points="563.5 214.5 616.5 214.5 588 164 563.5 214.5"/><path d="M788.66,582.08S772.41,615.72,766.91,638c0,0,37.5-9,54-18.36C820.91,619.67,804.41,595.33,788.66,582.08Z" transform="translate(-123.91 -426.33)"/><path d="M854.91,561s-8,35.78-8,50c0,0,14.5-3.72,47.5-20.72C894.41,590.33,880.66,575.17,854.91,561Z" transform="translate(-123.91 -426.33)"/><path d="M649.41,574.67s7.83,4.33,50.5,4L673.24,638Z" transform="translate(-123.91 -426.33)"/><path d="M723.24,579.67l27.34,50.66,25-57.33S746.58,580.67,723.24,579.67Z" transform="translate(-123.91 -426.33)"/><path d="M840.66,554.08a446.5,446.5,0,0,1-44.25,15.5s26.75,28,33.75,38Z" transform="translate(-123.91 -426.33)"/><path d="M917.91,611.05s-110,59.28-220.67,59.28-184-45.33-184-45.33l-10.67,40.66S572.57,709,695.24,709s222.67-52,236.67-60ZM552.59,675.71a12.57,12.57,0,1,1,12.57-12.57A12.57,12.57,0,0,1,552.59,675.71Zm59.82,18.06a12.94,12.94,0,1,1,12.93-12.94A12.94,12.94,0,0,1,612.41,693.77Zm69.81,8.06c-7.28,0-13.19-5.46-13.19-12.19s5.91-12.19,13.19-12.19,13.19,5.46,13.19,12.19S689.5,701.83,682.22,701.83Zm63.37-2.62A12.2,12.2,0,1,1,758.28,687,12.45,12.45,0,0,1,745.59,699.21Zm67-12a12.95,12.95,0,1,1,13.35-12.94A13.16,13.16,0,0,1,812.56,687.21Zm67.85-24.5c-7.39,0-13.38-5.53-13.38-12.35S873,638,880.41,638s13.37,5.53,13.37,12.34S887.79,662.71,880.41,662.71Z" transform="translate(-123.91 -426.33)"/><path d="M497.91,689.65s-14,58.68-18,141.35c0,0,98.67,16.67,243.33,16.67s231.12-24,249.17-30.34c0,0-5.17-78.66-33.83-142.5,0,0-121.34,59.5-238.67,59.5S497.91,689.65,497.91,689.65Z" transform="translate(-123.91 -426.33)"/><path d="M456.91,713.33s-211-25.25-279-37.62c0,0,33.67,119.46,260.67,146Z" transform="translate(-123.91 -426.33)"/><path d="M993.24,711.67l16,97.33s201.34-16.33,252-134.17C1261.24,674.83,1056.58,698.33,993.24,711.67Z" transform="translate(-123.91 -426.33)"/><path d="M123.91,693.77V797.33s47,27,103-15C226.91,782.33,140.91,723.21,123.91,693.77Z" transform="translate(-123.91 -426.33)"/><path d="M256.58,798.33s89.33,46.67,130.66,52c0,0-20.66,44-62.66,44S244.58,845.67,256.58,798.33Z" transform="translate(-123.91 -426.33)"/><path d="M411.24,857s-5.3,83.15,61.34,81.33c61-1.66,80.66-54.66,80.66-54.66S459.24,874.33,411.24,857Z" transform="translate(-123.91 -426.33)"/><path d="M581.24,889.67s-7.66,75.66,62.67,75.66,66.67-70.66,66.67-70.66S612.91,894.33,581.24,889.67Z" transform="translate(-123.91 -426.33)"/><path d="M732.91,895.83s108-5,140-12c0,0,1.25,90-75.75,90C797.16,973.83,745.91,975.83,732.91,895.83Z" transform="translate(-123.91 -426.33)"/><path d="M894.91,882.83s83.5-9.75,139.5-30c0,0,13,95-64.5,95C969.91,947.83,933.58,949.33,894.91,882.83Z" transform="translate(-123.91 -426.33)"/><path d="M1052.41,847.67s29.17,52.16,74.83,50.66,86.17-33,66.67-107.5C1193.91,790.83,1127.41,829.5,1052.41,847.67Z" transform="translate(-123.91 -426.33)"/><path d="M1320.58,692.33s-72.67,69.34-108.67,86.67c0,0,66.33,35.28,119.11,21.67a10,10,0,0,0,7.43-8.78C1340.2,773.7,1342.7,723.08,1320.58,692.33Z" transform="translate(-123.91 -426.33)"/><path d="M233.91,802.33s-53,32.34-101.33,19c0,0,30,258,584.66,258,547.67,0,590.67-205.5,613.17-258,0,0-54.5,13-111.5-15.33,0,0,8.33,113-89,113,0,0-41,1.67-77.5-41.33,0,0,3,89.16-80,89.16,0,0-47,2.75-81.83-56.5,0,0-20.67,84-91.67,84,0,0-47.5,1-74-59,0,0-24.21,50-79.11,50s-81.39-39.5-81.89-81c0,0-24,52.5-91,53.5s-79-63.5-81.5-78c0,0-32,35.5-67.5,35S236.41,878.83,233.91,802.33Z" transform="translate(-123.91 -426.33)"/></svg>